<svg xmlns="http://www.w3.org/2000/svg" width="732" height="732"><path d="m442.625 121.688 3.195-.01c6.613.045 12.754.758 19.18 2.322-1.488 4.252-3.734 7.743-6.25 11.438-4.558 6.854-7.778 13.893-10.75 21.562l.996-1.582C464.503 131.422 464.503 131.422 475 129c4.675.43 7.671 1.727 11.563 4.313l2.753 1.8c7.146 5.024 11.934 9.84 14.059 18.512 3.653 23.01-7.932 43.493-19.375 62.375 17.028-14.341 27.945-30.595 31-53h3c8.85 11.062 11.998 23.11 10.719 37.07-2.794 23.588-12.99 45.924-26.758 65.137-1.568 2.234-2.845 4.315-3.961 6.793 19.014-19.451 30.768-44.03 33.64-71.121C532 198 532 198 533 196h2c2.628 7.662 4.6 15.315 6.188 23.25l.504 2.505c7.023 36.15-.13 78.126-20.505 109.167C513.905 341.17 506.09 350.309 497 359a942 942 0 0 0-4 4c15.116-8.311 27.029-18.128 36.676-32.428 1.062-1.556 2.188-3.069 3.324-4.572h2c-.497 5.328-1.84 9.42-4.437 14.125l-1.065 1.955C512.825 371.785 484.247 386.11 454 399c25.728-5.06 47.663-10.682 68-28l2.477-1.875c2.84-2.391 5.022-4.975 7.336-7.875l2.394-2.984L536 356c1 3 1 3 .172 5.023C528.159 374.276 518.427 383.947 506 393c18.482-3.408 34.453-9.323 46-25 1.544-2.628 2.778-5.2 4-8l2 1c-7.241 15.915-17.225 25.472-33.562 31.813-5.866 1.948-11.728 2.976-17.813 4-9.145 1.577-16.32 4.437-24.364 8.954-4.615 2.517-9.36 4.784-14.074 7.108q-2.823 1.398-5.644 2.805l-2.437 1.21c-2.307 1.17-2.307 1.17-5.106 3.11l3.715-.402c10.018-1.04 19.966-1.744 30.035-2.036 18.455-.61 36.07-3.609 52.395-12.742L543 404l2 1c-9.083 5.563-17.807 9.76-28 13l-3 1 3.656.734 4.844 1.016 2.398.477c9.258 1.973 17.63 5.708 23.102 13.773l-1 2-1.215-1.172c-9.302-8.522-19.023-10.324-31.387-10.11-19.734.874-40.743 10.27-54.398 24.282a100 100 0 0 0-3 4l3.262-1.828c15.482-8.529 32.514-15.705 50.55-11.172l3.188 1c-3.332 1.034-6.156.978-9.625.813-17.787-.08-34.682 6.49-49.375 16.187h-2c.382-7.65 5.354-12.667 10.75-17.625C477.058 430.323 496.482 421.97 514 423v-2q-9.498.395-18.994.8l-6.447.27c-23.81-.625-23.81-.625-43.559 9.93h-1c-.316-4.933.857-7.11 3.937-10.845 7.02-7.33 17.32-11.384 26.375-15.592C486.489 399.8 498.083 393.93 509 386l-3.277 1.758C492.563 394.542 479.415 397.923 465 401c-24.364 5.266-46.312 15.362-61.312 36.215-1.636 2.561-3.205 5.133-4.688 7.785l-2-1c13.87-28.052 38.63-42.122 66.5-54 23.165-9.905 46.46-22.351 59.5-45l-1.152 1.328C508.742 360.438 487.128 374.853 468 378v-3a93 93 0 0 1 6.813-4.625c6.825-4.379 13.009-9.113 19.187-14.375l3.25-2.562c3.615-3.205 6.66-6.733 9.75-10.438l1.941-2.246C526.628 319.676 533.735 293.423 539 267l-1.469 3.043C531.225 282.969 524.391 295.011 515 306l-2.012 2.453c-14.924 17.545-35.637 28.02-55.963 38.018-15.102 7.44-29.371 15.295-42.025 26.529l-2.5 2.102c-10.643 9.146-20.196 20.29-26.5 32.898a251 251 0 0 0-.203 9.098l-.021 2.814c-.018 3.05-.024 6.1-.026 9.15l-.003 3.15c-1.312 42.59-1.312 42.59 8.253 82.788l.996-2.273c3.63-7.81 7.892-13.688 14.004-19.727l1.863-1.93c4.045-3.897 8.484-6.528 13.45-9.07l1.852-.956c4.46-2.17 4.46-2.17 7.835-1.044l-2.492 1.215C423.604 485.24 417.28 489.633 411 496l-2.184 2.152C402.13 505.142 397.25 513.31 396 523l1.469-2.16c6.255-8.937 13.147-16.704 23.531-20.84l2 1-2.344 1.652C410.136 510.27 399.275 519.4 397 533c.362 2.888.362 2.888 1.11 6.016l.788 3.543.852 3.691.805 3.645c1.413 6.25 2.998 12.18 5.445 18.105l2.188-1.875c5.464-4.129 10.119-4.718 16.812-4.125 2.426.514 4.646 1.199 7 2-6.531-3.768-12.549-5.056-20-6 1-3 1-3 3.004-4.168 11.044-4.4 17.992-2.567 28.996 1.168l2.836.934c2.058.678 4.112 1.37 6.164 2.066a2323 2323 0 0 0-6.687-3.875l-1.897-1.105c-5.495-3.165-10.052-5.206-16.478-5.645l-3.098-.227c-2.278-.119-4.56-.148-6.84-.148 1-3 1-3 4.313-5 7.118-3.28 14.568-4.701 22.269-5.863 14.472-2.191 27.208-4.63 39.418-13.137l-2.309.621-3.128.817-3.06.808c-8.672 1.866-17.22 1.88-26.065 1.817l-3.635-.014Q441.4 527.03 437 527v-3l1.728-.443q3.855-.993 7.71-1.995l2.72-.697 2.588-.674 2.396-.618c1.854-.413 1.854-.413 2.858-1.573l-3.035.254-4.027.308-3.973.317c-3.888.119-7.156-.21-10.965-.879v-3l2.965-.883c7.844-2.42 14.507-4.983 21.035-10.117l3.125-2.25c5.94-5.682 9.833-12.623 13.833-19.734 4.653-8.263 9.18-15.383 16.042-22.016l1.625-1.75C495 457 495 457 497 457v-2c6.243-2.48 11.283-3.32 18-3-2.977 1.599-5.897 2.588-9.125 3.563-11.833 4.291-18.077 13.839-23.967 24.394C473.84 494.405 464.663 509.446 448 515c14.867-1.21 26.816-7.092 37-18a142 142 0 0 0 7-9l1 2c-7.647 16.275-21.727 26.448-38 33 18.922-.255 33.295-4.258 47.125-17.937q1.952-2.019 3.875-4.063c0 6.999-7.683 13.886-12.312 18.75-14.92 14.331-33.165 18.467-52.973 21.249l-2.504.353c-.74.1-1.479.202-2.24.307-2.174.326-2.174.326-4.971 1.341l2.203.848c6.745 2.689 12.917 5.804 19.106 9.601 7.319 4.218 14.794 4.663 23.093 3.098 1.555-.445 3.083-.983 4.598-1.547-1 3-1 3-2.742 4.133l-2.133.992-2.117 1.008c-10.686 4.615-20.329 1.492-30.559-2.555q-2.234-.898-4.457-1.822c-3.666-1.391-6.826-1.876-10.742-1.818l-2.422.027L423 555l2.012.953 2.675 1.297 2.637 1.266c8.02 4.448 12.787 11.575 15.567 20.27.455 2.054.797 4.133 1.109 6.214h-2l-.594-1.723c-2.756-7.116-6.68-11.703-13.422-15.375-5.416-2.292-10.556-2.904-16.23-1.246-3.145 1.257-3.145 1.257-5.754 3.344-2.496 7.102.873 13.655 3.25 20.438 9.168 27.325 9.168 27.325 7.75 41.562l-1 2c-2.315-.186-2.315-.186-5-1-5.985-8-8.592-19.061-11.625-28.5l-1.406-4.3a2775 2775 0 0 1-2.704-8.31c-1.721-5.308-3.49-10.6-5.265-15.89-5.387-.203-7.74.574-12 4-4.064 4.064-5.447 8.601-7 14-2.551-3.827-2.435-5.431-2-10 1.502-4.668 3.278-8.916 6-13-4.665 1.337-8.128 3.275-12.125 6-7.214 4.668-14.524 6.748-23.125 5.625L340 582v-2l2.598-.445c7.38-1.448 12.38-2.873 17.402-8.555l1.645-1.84a157 157 0 0 0 2.996-3.547c1.374-1.631 2.831-3.125 4.359-4.613-7.302-.868-13.14.49-19.937 2.938-11.493 4.079-21.319 5.52-33.063 1.062-2.344-1.61-2.344-1.61-4-3l3.148.324c13.7 1.253 22.159-1.551 33.848-8.582C352 552 352 552 355 551l-1.721-.028c-16.04-.331-28.655-1.746-42.279-10.972l2-1a87 87 0 0 1 5.375 2.313c10.45 4.453 20.744 4.977 31.976 5.17 5.823.169 11.4.809 16.649 3.517l2 3-2.57.191c-9.808 1.024-16.943 3.985-25.43 8.809l1.906-.586A875 875 0 0 1 351 559l2.164-.645c7.57-2.096 15.414-2.092 22.836.645 1.762 1.574 1.762 1.574 3 3l-1.793.734c-7.48 3.173-12.176 6.941-17.207 13.266l2.23-1.46 2.957-1.915 2.918-1.898c4.096-2.443 7.397-4.015 12.207-3.852L384 567c-1.813 3.777-3.907 7.373-6 11l2.875-2.437c4.135-3.506 6.634-3.665 12.125-3.563l-.754-2.294c-2.771-8.68-4.865-17.41-6.683-26.331l-.454-2.181c-1.775-8.569-3.314-17.131-4.46-25.807l-.318-2.378c-.497-3.77-.962-7.542-1.382-11.322-1.881-15.77-10.035-28.314-21.949-38.687-6.563-5.122-13.624-9.172-21-13 3.642-1.214 4.981-.39 8.344 1.198l2.094 1.052 2.155 1.082c11.104 5.86 21.382 15.623 27.407 26.668-.214-9.405-6.147-17.4-12.437-24-4.892-4.653-10.237-8.612-15.663-12.61-12.11-8.93-23.101-19.157-28.9-33.39l1-2 1.145 1.984c7.706 12.778 17.447 21.99 29.258 30.82 2.94 2.202 5.829 4.468 8.718 6.735a227 227 0 0 0 4.942 3.711c2.907 2.414 4.928 5.36 7.12 8.422l2.17 3.018L375 465q.141-11.814.207-23.63c.021-3.658.05-7.317.095-10.975.044-3.54.067-7.08.078-10.621.01-1.987.041-3.975.073-5.962.005-19.14-8.98-32.342-21.234-46.156-6.51-7.351-12.108-14.824-16.344-23.719l-.933-1.95c-2.07-4.603-2.07-4.603-.942-7.987l1.469 2.93c4.136 8.098 8.511 15.2 14.531 22.07 20.545 23.636 20.545 23.636 25 37 1.42-17.523-7.35-30.032-18.062-42.937-8.11-10.017-14.019-21.476-16.938-34.063l1-3 .623 1.57c5.843 14.595 12.536 26.336 22.592 38.43 5.228 6.362 10.156 13.112 12.785 21l.516-3.009c8.97-52.104 21.52-101.422 40.984-150.678l.793-2.02a958 958 0 0 1 2.238-5.617l1.3-3.253C426 210 426 210 428 209a846 846 0 0 1-4.621 13.652C410.722 259.24 400.773 296.886 394 335l1.504-2.125C407.758 315.76 422.858 304.891 440 293l2 1c-6.17 5.225-12.382 10.35-18.812 15.25A5672 5672 0 0 0 417 314l-2.059 1.574C405.62 323.088 398.653 333.542 393 344v2l1.582-2.055c8.734-11.044 18.49-19.492 30.418-26.945l2 1-1.984 1.582C414.404 328.14 403.903 336.765 396 348l-1.271 1.685c-3.943 5.619-4.812 10.82-5.479 17.565A685.564 685.564 0 0 0 388 379l-.402 3.816c-.578 6.069-.72 12.09-.598 18.184l1.074-1.879c17.557-29.204 46.083-46.448 75.91-61.068C496.6 322.025 520.27 300.162 536 267l1.441-3.02c4.166-9.913 2.997-20.552 1.559-30.98l-.594 2.281a108.4 108.4 0 0 1-7.531 19.469l-1.057 2.13c-2.555 4.989-2.555 4.989-4.818 6.12 1.37-4.345 3.05-8.418 4.938-12.562 5.568-12.77 8.302-26.64 5.062-40.438l-.44 1.674C526.345 242.576 512.124 269.79 484 287h-2c.498-4.26 3.185-6.765 5.938-9.812 6.079-6.96 11.144-14.38 16.062-22.188l1.898-2.95c11.937-19.363 23.137-46.687 17.852-69.738-1.07-3.858-2.589-6.943-4.75-10.312-1.555 2.934-2.651 5.85-3.687 9-4.595 12.598-12.08 21.604-21.313 31l-2.61 2.727c-4.941 5.083-10.143 9.629-15.667 14.066-11.112 9.008-21.26 18.92-28.723 31.207l-1-2c2.99-7.673 8-13.613 13.633-19.492 2.379-2.436 2.379-2.436 4.297-5.016C466 231 466 231 468.852 228.742c4.019-3.242 6.676-7.353 9.523-11.617l1.717-2.552c10.578-15.94 18.993-32.364 19.22-51.886l.088-2.474c.075-7.19-1.675-12.376-6.697-17.604-7.258-5.92-7.258-5.92-15.703-9.609-5.37 1.365-8.375 3.921-12 8l-1.547 1.574c-10.07 10.648-15.94 24.175-21.6 37.485-1.186 2.698-2.504 5.322-3.853 7.941h-2c2.414-15.542 6.829-29.807 13.5-44.062l1.077-2.306c2.683-5.54 5.903-10.587 9.423-15.632-28.222-1.635-28.222-1.635-53 10l-1.594 1.379c-19.056 19.411-20.785 53.524-20.56 78.732q.06 4.445.154 8.889c-8.96-8.554-10.004-25.864-10.356-37.747-.145-17.006 3.963-32.58 10.356-48.253-17.773 10.782-22.492 28.407-27.434 47.681A114 114 0 0 0 355 201l-.332 2.824c-2.277 22.737.851 44.137 6.332 66.176h-3c-10.087-18.822-15.411-36.641-15.312-58.187l.014-3.869c.191-15.436 2.278-32.904 9.298-46.944-15.034 12.234-29.74 28.299-33 48-2.464 24.663.46 49.88 9.145 73.129C329 285 329 285 328 288c-12.48-27.765-20.564-63.06-9.629-92.719C322.51 186.31 328.276 179.108 335 172l1.948-2.06a662 662 0 0 1 6.302-6.502l2.004-2.059c3.973-3.965 7.739-6.83 12.746-9.379-.567 4.904-1.632 9.177-3.312 13.813-2.036 5.823-3.616 11.662-4.938 17.687l-.493 2.245C345.089 205.337 345.72 225.687 351 245l1 1-.46-2.883c-4.37-30.763-1.434-70.302 17.46-96.117 5.47-6.86 13.201-12.654 22-14-.645 4.175-2.062 7.603-3.812 11.438-5.834 13.145-8.367 25.892-8.375 40.25l-.038 3.396c-.012 7.19.664 13.895 2.225 20.916l.113-3.742c.9-24.932 4.565-53.384 22.602-72.324 10.906-9.23 25.081-11.46 38.91-11.246M446 159l1 2Zm78 183 1 2Zm-138 13v5h1v-5zm-1 5v7h1v-7zm-1 7q-.835 6.423-1.654 12.848-.279 2.175-.562 4.349c-5.09 39.102-5.499 80.744.216 119.803l.294 2.034c5.565 38.215 14.568 76.148 28.144 112.341l.962 2.575c1.46 3.733 2.59 6.315 5.6 9.05-.261-14.549-4.22-27.694-8.754-41.417-16.398-49.742-25.435-102.483-25.431-154.855-.002-3.429-.02-6.858-.04-10.287-.03-12.631.392-25.12 1.523-37.704.56-6.269.826-12.443.702-18.737zm127 16-1 2 3-1z"/><path d="m309 212 3 1-.484 3.77c-1.927 17.51-.402 34.93 2.484 52.23l-2-1c-.562-1.756-.562-1.756-1-4.059l-.497-2.585-.503-2.793-.526-2.835c-1.596-8.867-2.642-17.761-3.474-26.728-13.243 36.642-11.343 72.706 5.137 108.168 3.632 7.57 7.388 15.178 12.101 22.137C325 362 325 362 325 364c-6.815-.84-12.175-8.557-16.34-13.633-10.532-13.51-18.14-28.6-24.66-44.367 5.439 21.072 13.797 39.097 24.453 57.988l1.037 1.845q1.41 2.5 2.828 4.996c5.174 9.754 5.174 9.754 4.682 15.171-3.094-3.673-5.598-7.508-7.937-11.687l-1.065-1.884a235 235 0 0 1-6.6-12.648 170 170 0 0 0-3.421-6.437c-12.059-21.766-20.145-45.084-20.164-70.156l-.038-2.561-.005-2.459-.013-2.21C278 274 278 274 280 271c1.404 4.595 2.44 9.135 3.292 13.862 4.214 23.102 13.71 43.304 27.708 62.138l-.731-1.61c-16.948-37.636-23.824-75.506-9.141-115.14 2.396-6.182 5.1-12.23 7.872-18.25m-27 87 1 2ZM262 308c2.08 3.12 2.707 5.329 3.625 8.938C272.416 341.234 283.784 360.455 302 378c-5.584-13.594-11.646-26.29-22-37 3.856 0 4.466.976 7.188 3.625C296.21 353.984 301.246 366.079 306 378l1.035 2.55C308.2 383.516 309 385.788 309 389c-3.261-1.087-3.791-1.68-5.875-4.25-2.776-3.3-5.701-6.316-8.804-9.3C283.258 364.764 275.92 352.633 269 339c1.16 25.18 14.728 47.243 30.39 66.094l1.777 2.149a414 414 0 0 0 3.492 4.151c3.107 3.728 5.156 6.79 6.341 11.606l-1.293-1.031C296.225 411.517 281.675 403.879 265 400c5.501 5.876 11.267 10.807 17.754 15.559C298.912 427.549 313.25 442.256 323 460v2c-4.14-1.506-7.726-3.55-11.5-5.812-11.327-6.612-23.236-11.398-36.5-11.188l2.238.848c19.208 7.59 30.357 19.596 41.047 36.816C326.367 495.667 334.372 502.328 348 509v1c-15.357 1.013-29.415-3.476-41.098-13.617a254 254 0 0 1-6.066-5.66 242 242 0 0 0-7.899-7.223c-2.39-2.101-4.71-4.225-6.937-6.5 5.083 1.324 8.409 3.678 12.25 7.125q1.724 1.495 3.45 2.988L305 490c7.875 6.828 16.447 13.328 27 15l-1.504-1.18c-6.946-5.72-11.34-12.43-16.133-19.96-11.188-17.56-23.174-31.31-44.488-36.173-8.328-1.41-16.539-.68-24.875.313 2.566-2.566 4.782-3.021 8.25-4.062l3.39-1.036c17.887-4.804 34.64-1.061 51.06 6.575 3.204 1.552 3.204 1.552 6.3 2.523-3.328-3.939-3.328-3.939-6.661-7.874a581 581 0 0 1-6.124-7.302c-5.827-7.06-12.974-12.453-20.212-17.987-15.296-11.7-15.296-11.7-19.253-17.274-3.195-3.97-6.835-4.505-11.687-5.063A165 165 0 0 0 243 396v-1h13l-1.68-3.324-2.195-4.363-1.105-2.186c-4.074-8.11-4.074-8.11-5.02-11.127l1-3 .854 1.665c1.293 2.51 2.595 5.016 3.896 7.522l1.344 2.62c4.438 9.074 4.438 9.074 12.836 13.966q2.967.821 5.945 1.602c9.368 2.63 17.669 5.803 26.125 10.625l-1.145-1.187c-19.565-21.261-31.186-47.343-32.46-76.173-.25-5.256-.912-10.266-1.985-15.425-.511-2.761-.561-5.415-.41-8.215M436 429l2 1-1.342 1.066c-11.82 9.42-11.82 9.42-22.658 19.934a541 541 0 0 1-3 3l-2 2c4.253-11.733 14.482-20.395 25.152-26.285z"/><path d="M275 473c6.692 2.023 10.83 4.376 15.125 9.938 14.698 18.427 30.83 32.44 53.875 39.062l2.001.575q2.499.716 4.999 1.425v2c-12.343 4.114-28.39-.769-39.742-6.012-2.153-1.122-2.153-1.122-4.258-.988 13.333 10.773 27.446 15.643 44.146 18.518 8.022 1.453 8.022 1.453 10.854 4.482v2l-1.766-.035c-6.794-.075-13.473.384-20.234 1.035 2.395-2.9 4.312-3.502 8-4l-3.297-.7c-21.546-4.715-40.521-14.055-53.078-32.925C290 504 290 504 291 501c.84.835.84.835 1.695 1.688C302.617 512.13 316.7 522 331 522l-2.387-1.18c-17.188-8.828-30.489-21.17-42.433-36.265-2.892-3.39-6.117-6.238-9.528-9.094L275 474zM299 552c6.055.303 9.515 3.278 14 7l-2 1-3.187-2.375c-2.83-2.03-5.486-3.516-8.813-4.625z"/></svg>