<svg xmlns="http://www.w3.org/2000/svg" width="732" height="732"><path d="M528.0625 89c11.0475 11.94023 10.60852 36.78913 10.03809 51.81396-3.86485 83.99479-48.60997 192.4793-109.38965 251.7251C418.919 401.428 408.10533 408.86436 397 416l-1.72852 1.1123A1076 1076 0 0 1 386 423c13.70969-5.20023 27.39045-10.7348 39.08203-19.75C427 402 427 402 430 402c-.56593 4.41428-2.2071 7.17119-4.625 10.875-4.84942 7.74295-8.80561 15.89898-12.75 24.125l-.9824 2.0463c-3.23833 6.75392-6.4427 13.52362-9.63088 20.30136-21.87036 46.3952-48.1703 88.33278-98.54688 106.47265-9.85244 3.40226-19.85768 6.36455-29.85058 9.32373C260.32663 578.28571 260.32663 578.28571 249 585l2.10864-.40674c8.1927-1.48395 16.27276-2.05134 24.57886-2.46826 15.2892-.87406 28.73245-3.23539 42.8711-9.26953L321 572l2 1c-16.15644 10.51396-32.8886 12.90003-51.80054 13.66577C252.2001 587.23591 252.2001 587.23591 236 596l3.70313-.96484c5.99066-1.32905 11.93118-1.44926 18.04687-1.59766a4275 4275 0 0 0 6.91406-.21875c1.09345-.0348 2.1869-.0696 3.31348-.10547 5.35528-.20071 10.6875-.6057 16.02246-1.11328-7.23314 7.23314-23.0926 5.74574-32.57422 6.17188-9.63634.374-9.63634.374-18.42578 3.82812-1.92708 2.80697-2.92637 5.78555-4 9l-1.0752 2.87256c-1.21977 3.25947-2.3884 6.53423-3.5498 9.81494l-1.3103 3.66528c-2.30821 6.48694-4.52556 12.99536-6.6233 19.55347C210.6289 665.03928 204.5374 683.94384 191 698c-2.76562 1.3164-2.76562 1.3164-5 2-1.83966-3.79791-2.19588-5.81397-.97266-9.84766l.87842-2.95507 1.03174-3.25977 1.0708-3.49023c3.59889-11.54377 7.47874-22.9983 11.3667-34.44727l.97772-2.88138c3.14357-9.2383 6.31393-18.45115 9.909-27.52487l1.4497-3.69922c.86357-2.16968 1.75163-4.32989 2.6709-6.47656 3.2535-8.14684 2.70355-14.83347-.35449-23.02075-2.69478-6.16856-6.88585-11.304-10.92114-16.63184C198.80499 559.9767 195.1977 553.92485 193 547l1-3 1.10938 2.3164c3.39218 6.7117 7.12432 12.47227 11.95312 18.2461 4.53773 5.4314 7.9306 10.56763 10.85156 17.04688C219.00578 584.183 219.00578 584.183 221 587c-.62699-12.3308-5.89113-22.05676-12-32.5-11.37924-19.46104-15.26532-38.12441-15-60.5h2l.42383 1.65796c4.5828 17.64049 11.5685 32.69975 20.12353 48.70703C219.4242 549.78209 221.93638 555.21795 224 561c-2.49882-13.67776-5.69325-27.12498-9.18164-40.57812C197.40784 452.81465 230.339 389.14564 264 332l1.85645-3.16064C275.31545 312.78198 285.20503 297.1916 296 282l3 1-.21875 2.23828c-.63536 6.94485-.90477 13.78953-.78125 20.76172l.6289-3.45312C303.90454 274.90518 314.96424 254.12754 332 232l1.5581-2.02637c5.30848-6.87685 10.75383-13.6398 16.27784-20.34472 1.4292-1.7362 2.85123-3.4783 4.26562-5.22657 14.04569-17.34003 29.09325-33.65774 44.83594-49.46484l2.36572-2.37988C406.04043 147.83356 410.9013 143.33055 416 139l1.94458-1.66187C432.68919 124.81836 448.09559 113.44238 465 104l1.81934-1.02979C480.63779 95.25681 512.9044 78.52653 528.0625 89m-38.48047 10.03125L488 101l-1.98828 2.46875c-11.90748 16.07404-19.56768 33.98602-25.82422 52.84375l-.8207 2.4634c-.76576 2.31713-1.5173 4.6382-2.26133 6.96238l-.69556 2.13385C455.0832 171.47075 455.0832 171.47075 456 175q2.65752-3.31149 5.3125-6.625l1.64844-2.0564c3.0965-3.86928 6.16673-7.7567 9.20776-11.66967 4.6267-5.94776 9.41621-11.71114 14.35303-17.40357 3.89373-4.51055 7.60085-9.14169 11.25683-13.84595 3.57734-4.5988 7.22764-9.13348 10.90894-13.64941l1.6587-2.03687a24225 24225 0 0 1 3.17626-3.89917c2.1015-2.58 4.19963-5.16245 6.29004-7.75146l1.89453-2.33984C523.10005 92.22569 523.10005 92.22569 523 91c-10.78984-.65503-25.33436-.3184-33.41797 8.03125M524 93c-1.69178 1.7719-3.25577 3.55135-4.8125 5.4375l-1.47192 1.76367c-5.50469 6.65707-10.71556 13.53684-15.92066 20.42871-1.887 2.4917-3.78492 4.97474-5.68554 7.45606C478.55462 151.01577 461.59993 174.37128 445 198l1 2 2.53735-1.47314c6.23062-3.59907 12.48988-7.11911 18.865-10.45655l1.85995-.97381a27016 27016 0 0 1 3.7598-1.96686C484.08796 179.32554 494.93143 173.44257 505 166l2.57813-1.85547c5.50346-4.1631 10.39793-8.92524 15.29687-13.76953l1.94922-1.92065c6.34499-6.14847 6.34499-6.14847 9.63672-14.10279-.6145-21.62194-.6145-21.62194-8.46094-41.35156zm-40 6c-2.4909 1.06622-4.84989 2.192-7.25 3.4375l-2.156 1.10303c-26.8501 13.85869-40.42576 31.60005-49.844 60.58447-5.39333 17.56162-8.02652 35.96285-11.05103 54.04248C412.6367 224.49506 411.46184 230.75215 410 237c3.63202-3.33844 6.21713-7.05289 8.9375-11.125A716.8 716.8 0 0 1 431.5 207.9375l1.65088-2.30664c2.52125-3.50562 5.06973-6.94425 7.8374-10.25977C449.70343 184.73296 453.13323 173.04955 457 160c6.61992-21.75225 15.29373-41.7338 29-60zm-46 28c-7.99131 5.99975-15.74058 12.11122-23 19l-2.49219 2.1836c-3.29393 3.69925-5.12669 7.5657-7.13281 12.0664l-1.28003 2.85132c-14.3451 32.99557-21.29253 66.819-24.78247 102.46118l-.2027 2.06976C378.22602 276.2996 378.22602 276.2996 378 285c3.76812-3.38785 6.15867-7.20815 8.75-11.5a2526 2526 0 0 1 2.64844-4.30469l1.32324-2.14746c3.53826-5.66825 7.22942-11.27591 11.20093-16.64892 2.46626-4.03518 3.79071-7.9123 5.10473-12.43018l.77904-2.64392c2.77504-9.8051 4.29736-19.75549 5.75612-29.82483 2.57998-17.5691 5.30687-35.40504 12.25-51.875l1.00781-2.47046c2.72405-6.49449 6.01055-12.51753 9.71094-18.5022C438.24222 130.0679 438.24222 130.0679 438 127m94 16c-1.0263 1.29204-2.0198 2.61015-3 3.9375-15.70868 20.30094-39.3498 33.002-62.07812 44.0586C458.52324 195.08336 450.48178 199.33727 443 205l-1.75195 1.26147c-7.27145 5.70949-11.79453 13.50864-16.74805 21.17603a3287 3287 0 0 1-2.78125 4.24023C419.46665 235.11048 417.22936 238.55245 415 242l1 2 2.5586-1.66016c9.92347-6.2169 20.27138-11.1364 30.9414-15.90234 21.8816-9.7882 41.58627-20.2428 59.5-36.4375l2.27734-2.05469c4.21568-4.01739 7.85504-8.45698 11.47266-13.00781l1.39526-1.75146c5.95944-7.6598 9.00843-13.58785 8.91724-23.43604l-.02734-3.82812L533 143zm-135.56738 19.78247c-22.92776 24.22493-25.2512 72.76117-25.98468 104.40085C370.1836 278.53468 369.52986 289.74142 368 301c8.91784-9.84367 8.77984-26.24488 9.7814-38.8992.37314-4.65283.80005-9.30061 1.23032-13.94846l.25236-2.72697c.94337-9.95622 2.39794-19.6981 4.73592-29.42537l.68164-2.85986c4.00328-16.32736 9.7879-31.77904 16.19263-47.2854C402.02628 162.93335 403.03338 159.9873 404 157c-2.8212 0-5.64684 3.90649-7.56738 5.78247M529 170c-1.57559 1.98005-3.1075 3.97612-4.625 6-6.18588 8.1268-12.42789 15.52556-20.375 22l-2.8711 2.34375c-16.35984 13.09709-34.83255 21.68568-53.91577 30.1018C423.6635 240.7923 423.6635 240.7923 405 258c3.97532 0 6.33311-1.87126 9.625-3.875 9.96213-5.83762 20.62245-9.79505 31.3628-13.95361 30.58435-11.89364 64.61276-28.66992 82.14892-58.07764C529.73789 178.21038 529.9062 174.16148 530 170zm-144 5c-2.03743 2.07684-4.02792 4.1748-6 6.3125l-1.78613 1.9309c-4.20973 4.5854-8.25653 9.26458-12.09668 14.16676C363 200 363 200 360.6953 202.24609 351.72445 211.4435 349.81947 223.84141 347 236l-.5542 2.33398c-4.8647 20.82436-5.60744 42.22496-5.40698 63.51496.13822 15.8376-.1013 31.40869-2.03882 47.15106 2.91634-2.58715 4.65719-5.56772 6.61719-8.91797l1.02737-1.74568c1.08113-1.83879 2.15602-3.68113 3.23044-5.52385 1.0658-1.8196 2.13291-3.63842 3.20082-5.45679a2230 2230 0 0 0 2.06894-3.53125c1.85637-3.16614 3.76785-6.28365 5.75758-9.36743 8.88639-14.1186 7.11656-35.76136 7.48517-51.86331.61602-26.57177 5.03447-51.40025 13.883-76.50192 1.28452-3.68333 2.50467-7.38827 3.72949-11.0918zm141 13-1.61719 2.05469c-21.54842 26.91688-49.11031 41.77861-80.76465 53.96386C431.65146 248.63188 419.94536 253.25691 409 260l-2.89453 1.77344c-7.13644 5.02072-11.12443 11.89963-15.40283 19.2959-2.11474 3.64-4.26502 7.2582-6.41748 10.87597-2.5679 4.31607-5.13452 8.63277-7.6853 12.95899l-1.22536 2.07492a2094 2094 0 0 0-2.27988 3.8709C370.84548 314.65558 368.48076 318.34403 366 322l1 2 2.61328-1.83594c20.0046-13.83175 41.21212-22.55927 64.2539-30.07812C465.1423 282.0598 465.1423 282.0598 493 265l1.61328-1.27295C502.30634 257.53726 507.43564 251.30914 511 242l1.00195-2.53857c4.79435-12.26279 8.79434-24.65978 12.12305-37.39893l.9314-3.55493c1.78497-5.33579 1.78497-5.33579.9436-10.50757m-178 30c-.9356 1.07237-1.82817 2.1823-2.70312 3.30469l-1.70313 2.18164L341.75 225.875l-1.89062 2.44336C318.55633 255.99943 304.68136 281.9946 300 317l-.39844 2.78906c-.32205 2.74183-.48147 5.4523-.60156 8.21094l-.11475 2.0371c-.68017 13.46578.84168 26.27815 2.90445 39.53971C303.88172 383.06836 304.90214 396.32874 305 410c2.54233-3.19832 4.4897-6.55075 6.4414-10.13672l.98225-1.79475c1.04907-1.91717 2.0942-3.83645 3.13885-5.75603 4.18657-7.6812 8.37092-15.32802 12.98242-22.76514C333.06812 362.24161 335.85165 355.6405 337 347l.52344-3.60937c.66838-5.50879.8446-11.03577 1.03906-16.57813l.13525-3.64404c.28456-8.68494.29545-17.34746.21656-26.0359-.21818-24.71007 2.10826-47.7091 8.469-71.6826.62203-2.47117 1.1374-4.94756 1.61669-7.44996zm154 42-1.8789 1.8711c-18.01917 17.2323-41.222 25.16009-64.5586 32.6289C411.642 302.16991 389.01622 310.36423 369 326l-2.44531 1.69531c-9.11682 7.00618-13.70344 17.49593-19.00928 27.44336-1.42724 2.64254-2.90023 5.24888-4.4087 7.8457l-1.29662 2.23804c-.79218 1.36264-1.58838 2.72296-2.38916 4.08057-.87772 1.53244-1.67405 3.11107-2.45093 4.69702l1 2 1.4414-1.39844c19.2782-17.96458 43.48731-26.83343 67.8914-35.56848 37.17667-13.30877 72.86966-28.4716 90.6047-65.97058l1.5332-3.1504 1.43164-3.00194 1.29663-2.7146L503 262zm-125 25 1 2Zm5 1 1 2Zm-2 3 1 2Zm-1 2v3Zm-86 2c-12.9511 18.2403-7.30903 49.38678-4 70 1.27202 7.00138 2.70413 13.9741 4.1043 20.95074C295.83359 397.66764 297.15838 410.97762 297 425c8.85383-11.10358 6.2114-28.9096 4.73438-42.17578-.75893-6.274-1.7139-12.51557-2.67188-18.76172C295.44641 340.34367 293.42933 317.00307 294 293zm84 1 1 2Zm-1 2v3Zm-2 3 1 2Zm-1 2v3Zm109 0-1.94922 1.8711C460.67448 321.0312 437.76771 331.2227 413 340c-25.68802 9.18732-49.97572 18.00873-71 36l-2.69531 2.28906C334.81095 382.20634 330.93984 385.78846 328 391l1 2 1.66016-1.4336c22.3651-18.65576 49.29887-27.41792 76.88037-35.30786C428.3292 350.30364 447.07638 342.75342 464 329l2.64844-1.97266C474.60026 320.67812 479.09063 312.25587 483 303zm-111 3-2 5 3-3zm-87 3c-1.02726 1.55005-2.00212 3.13483-2.95703 4.73047l-1.8562 3.0935-1.99927 3.36353-2.03638 3.41626C273.0921 325.0641 271.04483 328.53126 269 332l-1.81934 3.08398c-1.63269 2.77885-3.25327 5.5643-4.86816 8.35352l-1.45435 2.48315c-5.11514 8.91664-8.36138 17.35123-9.60815 27.57935l-.36792 2.89355c-2.53598 21.45144.26754 41.9057 4.9451 62.8624C259.5777 456.11861 262.65863 472.75493 264 490c2.26749-2.87142 4.02669-5.76786 5.69556-9.02124l1.55714-3.02672c2.32952-4.58275 4.6582-9.16585 6.97215-13.75648 1.2167-2.41128 2.44374-4.81682 3.68067-7.21778 1.79028-3.4825 3.55605-6.97652 5.31714-10.47387.82347-1.5867.82347-1.5867 1.66359-3.20543 6.70972-13.49534 7.06652-27.3242 4.98875-41.98598l-.38452-2.79419c-1.22312-8.4595-2.88065-16.8266-4.55298-25.20581C284.51475 351.06914 282.72538 329.6243 285 307zm84 2c-4.67792 7.65984-9.34163 15.32826-14 23l-1.90967 3.14014c-8.77506 14.44616-17.20407 29.04758-25.39941 43.82959-1.64907 2.95528-3.31923 5.89733-4.99951 8.83496-7.29564 12.7589-14.1928 25.68279-20.9082 38.75561-1.68973 3.25938-3.40271 6.50527-5.12157 9.74932-6.76888 12.78851-13.3044 25.69208-19.78664 38.62788l-.89351 1.7822c-9.3377 18.63278-18.26821 37.38828-26.49777 56.538-1.81523 4.22123-3.68004 8.4161-5.58528 12.59777C234.2058 564.95229 226.51766 584.41643 219 604l-.88013 2.29211c-8.45303 22.05396-16.26072 44.3032-23.4981 66.7859-.61977 1.9158-1.25114 3.82753-1.883 5.73937l-1.14111 3.53418-1.01148 3.0962c-.84217 2.65186-.84217 2.65186.41382 5.55224 9.1412-12.14066 15.41464-24.85682 19.93066-39.28607 1.23204-3.92841 2.5176-7.83945 3.7959-11.753l.80255-2.4678C232.64938 585.0529 254.1028 533.69428 278 484q.9189-1.91836 1.8374-3.83691c8.694-18.13958 17.61612-36.16567 26.6001-54.16309l1.37741-2.76294C314.05031 410.7383 320.4397 398.33128 327 386l.98001-1.84546c9.38628-17.66903 19.00406-35.2083 29.12859-52.46646 1.41385-2.41028 2.8227-4.82347 4.232-7.23642 1.0188-1.73757 2.04692-3.46967 3.07517-5.20166l1.85767-3.17578 1.66943-2.82544L369 311zm99 20c-.57105.48469-1.1421.96938-1.73047 1.46875-20.31153 16.79172-43.30678 24.41697-68.25 31.53516C383.84116 365.77297 371.23005 369.75619 359 376l-1.8501.93555c-7.32191 3.76954-13.98861 8.22935-20.5874 13.12695l-1.9712 1.46191C325.40606 398.3239 325.40606 398.3239 320 408l2.60156-1.73437 1.66895-1.11133c1.608-1.07321 3.21188-2.15257 4.81543-3.23242 11.30369-7.4642 22.90596-13.60855 35.63672-18.28516l2.47308-.90904c10.24576-3.69537 20.71843-6.59074 31.19928-9.53261 24.53757-6.91382 53.93384-16.07514 68.04248-39.00757L468 331zm-12 21-3.08594 2.125C432.59283 365.19083 412.22196 371.60026 390 378c-21.415 6.18382-41.75876 13.02292-60.23633 25.79102-1.64 1.1242-3.3179 2.19257-4.99804 3.25585-9.71034 6.89283-13.84188 16.54827-18.86915 27.03711-2.21393 4.60057-4.51759 9.1553-6.81835 13.7129C294.01312 457.84546 288.958 467.89808 284 478l-1.21802 2.4762c-1.16091 2.3706-2.30953 4.74672-3.45385 7.12536l-1.06794 2.1771C277.44512 491.49109 276.7137 493.2429 276 495l1 2 2.71875-1.90625c17.43187-12.0391 35.99288-19.54386 55.96875-26.39844 11.90052-4.10451 23.51511-8.43431 34.875-13.88281l3.00488-1.43848C384.26977 448.09738 393.8967 441.7006 403 434l2.67188-2.22656C412.50668 425.88904 416.75973 420.38999 420 412l-2.79687 1.46875C397.26037 423.7872 376.7748 430.60383 355 436c1-3 1-3 3.13867-4.28345l2.83008-1.28296 3.14429-1.45483L367.5 427.4375C390.35922 416.72502 410.90545 403.71862 429 386l2.44531-2.29297C441.17935 374.39695 448.7299 363.2707 456 352zm-206 18 1 2Zm-1 2c-1.15782 2.3489-2.30121 4.7032-3.4375 7.0625l-.98633 1.99023c-11.92431 24.955-.69268 59.2787 6.16492 84.3674C253.4134 476.89816 255.91319 490.03874 257 504l2-1c5.06034-15.18102.3078-34.80544-3-50-.78241-3.72569-1.5571-7.4529-2.32959-11.18066-.51378-2.46705-1.03446-4.93267-1.56348-7.39649-2.74114-12.91506-4.4335-25.32902-4.29443-38.54785l.00195-3.55078c.03739-7.48531.44617-14.876 1.18555-22.32422zm-12 24c-17.58969 42.1758-22.49393 71.43322-6.09375 115.07422C234.08929 520.22972 237.85202 531.06102 239 543c2.89684-2.49536 4.14626-5.1404 5.66406-8.6211l1.46094-3.33398 1.5-3.48242 1.52344-3.4707c5.49359-12.61901 5.9576-23.9812 3.64844-37.49024l-.39551-2.33679C250.844 475.52014 248.44587 467.03005 246 458.5c-4.92396-17.17248-8.34625-33.7047-8.6875-51.625l-.10352-3.80078A1231 1231 0 0 1 237 394zm172 39-1.69531 1.65234C399.43516 441.11324 392.09417 446.21334 384 451l-3.42187 2.02734c-13.41028 7.6525-28.0789 12.68273-42.58594 17.82422C306.06882 481.77031 306.06882 481.77031 278 500l-3.01562 2.17969c-3.90503 3.26157-5.64344 7.49827-7.67188 12.07031l-1.14258 2.44922C263.72973 522.0225 261.73525 527.40892 260 533c3.97997-2.24955 7.9119-4.55278 11.8125-6.9375 15.42847-9.20173 31.85565-13.99074 49.2752-17.96127C343.95026 502.85963 364.1369 496.51459 383 482l2.53125-1.72656c3.34577-3.08107 5.06527-6.4911 7.09375-10.52344l1.26685-2.46655c3.57487-7.04617 6.96183-14.18312 10.29565-21.34595l1.49658-3.19043 1.35889-2.96973 1.21948-2.64868L409 435zm-194 30c-2.80268 25.4243 2.6123 48.1719 8.65625 72.73438A7260 7260 0 0 1 224.25 542.25l.76709 3.14233C226.81412 552.89086 228.20333 560.32175 229 568c1.82164-2.73246 3.18528-5.34017 4.5625-8.3125l1.3164-2.80078c6.7652-17.41978-4.14443-38.5435-9.91894-54.81787C220.39782 489.16734 217.20434 476.51356 215 463zm168 23-2.46484 1.6875c-20.64782 13.87548-42.48612 19.75689-66.53516 25.375-20.18939 4.75347-45.41866 11.95849-58 29.9375l1 2 2.14063-1.46875c16.6884-10.90197 35.19808-16.02777 54.42187-20.59375 38.44776-8.48783 38.44776-8.48783 68.6875-32L383 488zm-11 17-1.51172 1.10156c-18.07257 12.65404-40.03642 17.52367-61.18017 22.50293C276.9303 533.97103 276.9303 533.97103 251 552c-.77101 2.6149-.77101 2.6149-1 5l2.6836-1.57422C270.35228 545.34668 295.3731 538 316 538c-8.34151 2.98444-16.64408 5.14425-25.3125 6.9375C270.28212 549.26516 270.28212 549.26516 252 559l-3 2.05078c-4.11507 3.48394-5.60157 8.1998-7.4375 13.13672l-1.0996 2.77148c-1.36183 3.47805-1.36183 3.47805-2.4629 7.04102l1 2 1.73828-1.28516c12.96062-8.94853 28.1034-12.717 43.06897-17.00552C306.2724 561.26617 325.98494 553.42466 344 538l2.45313-2.04687C357.1423 526.74295 365.51407 515.90455 373 504zm-173 12c.5724 5.72404 1.62873 10.9176 3.4375 16.375.25515.77021.5103 1.54043.7732 2.33398 2.91948 8.3303 7.22442 15.77494 11.6765 23.3628C217.03233 562.52156 219.71089 568.14435 222 574c3.21237-9.63712-5.21198-22.36351-9.35937-30.78125-2.59391-5.17271-5.30203-10.27833-8.07496-15.35693C202.2931 523.66729 200.47938 519.53062 199 515z"/></svg>