<svg xmlns="http://www.w3.org/2000/svg" width="732" height="732"><path d="M410.0625 124.125C430.7336 143.2876 439.9889 174.9718 444 202l.4326 2.8647c11.6323 80.8903 16.4236 199.6507-31.9018 284.1187-9.2425 12.0408-19.5166 23.094-30.3294 33.7246C368.552 536.1608 353.9283 551.946 352 572l1.1445-2.6406c4.3403-9.392 9.562-16.0873 16.8555-23.3594l1.8867-2.0664c4.961-5.34 10.7402-9.5636 16.5413-13.934C395.1764 524.9081 401.661 519.591 408 514l2.1563-1.8281C425.534 498.1806 432.714 478.2189 439 459h1c-.0752 17.7495-9.677 35.833-21 49l-2.0898 2.457c-7.4528 8.5268-15.6216 15.6629-24.7227 22.3555C378.5148 542.884 364.8859 554.1425 358 570l2.0273-2.2383C368.0832 559.146 376.9331 553.056 387 547c27.1858-16.4334 43.3404-32.1998 55-62 2.3457 7.667-3.2406 17.9436-6.8125 24.8125C431.9801 515.3296 428.2129 520.2168 424 525l-2.1016 2.4258c-9.952 10.7215-22.9741 17.8407-35.3984 25.3242-14.1452 8.5423-25.3716 17.487-31.5 33.25l1.3281-1.871c10.3418-13.8101 23.71-19.8901 39.0156-27.0157C413.0728 548.8514 426.9808 540.3607 437 523c1 3 1 3 .1016 5.129-11.0407 18.1966-26.1987 26.789-44.9224 35.4438C373.6446 572.1483 373.6446 572.1483 360 587c.522-.459 1.0441-.9178 1.582-1.3906 8.9538-7.464 18.6837-11.0125 30.418-10.6094 11.469 1.7676 11.469 1.7676 15 6l-2.9531-.4805c-13.2669-1.8767-26.0137-1.5604-37.3594 6.2305-3.9624 3.283-7.4744 6.5445-9.6875 11.25-.3817 7.0602 1.6264 14.1897 3.2227 21.0112C363.9856 635.2028 367.5959 653.799 362 670c-2.3125-.125-2.3125-.125-5-1-2.395-4.0724-3.7196-8.1085-4.8672-12.6719l-.4845-1.9147c-.5158-2.0526-1.02-4.1077-1.5233-6.1634l-.5299-2.1296c-2.716-10.9244-5.0595-21.8714-6.9598-32.971C341.2364 605.2257 339.395 599.3065 333 594c-10.5452-6.1947-20.4945-7.5512-32.4883-8.6797-9.4973-1.0155-18.5357-2.9655-26.0117-9.2578l-2.4062-1.9648c-2.1924-2.1964-3.6184-4.3787-5.0938-7.0977 2.8862 1.338 5.2189 2.8773 7.6875 4.875 9.1123 6.8804 18.6097 8.5805 29.8125 9.5117 10.2712.8812 18.9787 2.5438 28.5 6.6133-8.3965-9.4282-19.0393-14.701-30.375-19.875C279.7502 557.3844 264.1447 543.4612 254 520c-1.2023-3.6324-2.1985-7.2594-3-11 2.243 2.055 3.5657 3.8347 4.7617 6.625l.94 2.1255.9858 2.2495c3.341 7.356 7.204 13.706 12.3125 20l1.414 1.9063c7.9122 10.1793 19.6081 15.9736 31.086 21.1562 12.9833 5.8998 24.821 12.2337 34.5 22.9375-6.1507-14.4407-19.2667-24.3999-31.9375-33-26.3006-18.176-45.165-39.5793-53.0625-71-.402-2.3312-.7127-4.6506-1-7h2l.4839 1.6262C258.833 494.305 265.4938 511.1042 278 525l1.711 2.1719c8.465 10.4241 20.442 17.6744 31.5585 24.9804C319.4321 557.6758 331.47 565.9397 336 575c-2.1243-13.832-17.356-26.3958-27.5625-35.0625-39.0245-33.8007-60.082-79.2083-64.125-130.4375C240.714 339.7039 257.8995 262.4373 289 200l1.1948-2.4229C295.359 187.1871 301.2335 177.4247 308 168l1.2397-1.7358c16.4177-22.672 40.2783-45.7214 68.5728-51.6392 12.557-1.7915 22.5801 1.6854 32.25 9.5m-87.625 31.5625C316.3416 162.6494 311.1675 170.3391 306 178l-2.0625 3.0352C293.2485 197.6596 298.348 226.494 302 245c3.5457 16.1727 9.881 30.6375 17.1563 45.4219C334.66 322.0163 334.66 322.0163 337 336c2.876-2.876 2.8478-6.1422 3.4102-10.0195q.398-2.5798.7968-5.1595l.4204-2.7762C348.7427 271.3146 359.0391 225.4358 372 180c-1.1142 7.221-2.4461 14.3842-3.8828 21.5469-9.5537 47.6598-17.5222 95.4511-22.2813 143.8476l-.2586 2.5717c-.4785 5.0367-.655 9.9744-.5773 15.0338 1.4639-2.1958 2.6707-4.2192 3.8477-6.5547 9.898-19.356 22.897-35.3499 37.6025-51.2676a4758 4758 0 0 0 3.1074-3.3672c2.2522-2.4426 4.508-4.8802 6.7862-7.2988C416.0774 273.241 430.4405 247.6803 439 220l.918-2.879c4.93-19.5704-6.3026-46.7526-14.918-64.121l-1.7187-3.5195c-6.2212-12.1455-14.7182-24.5537-27.875-29.7578-27.4869-8.255-55.6218 17.5883-72.9688 35.9648M296 195c-10.3366 14.582-6.6411 34.042-3.9727 50.6914C295.7041 266.6531 303.1403 286.7188 312 306c-17.962-26.4666-22.925-58.8561-25-90-2.8594 1.4297-2.9953 3.1183-4.1016 6.0898l-1.2229 3.2732-1.3005 3.5745-1.3533 3.7053c-18.4358 50.8833-31.1744 95.3857-8.0803 146.7635C277.8656 394.1606 287.2837 406.8186 298 419c11.5984 13.3122 22.1253 26.0967 30 42h1l.087-1.9885c1.3589-30.8561 2.9087-61.611 6.0458-92.3474.2222-2.2018.4431-4.4036.6618-6.6057.1996-1.9999.4048-3.9992.6102-5.9986.6121-6.793.6858-12.575-1.2798-19.1223l-.6792-2.3972c-4.1198-13.8315-10.4848-26.777-17.0083-39.6028-13.5222-26.6597-20.9393-53.3634-20.5625-83.375q.015-2.1377.0273-4.2754c.0217-3.4292.056-6.858.0977-10.2871zm145 26-1.25 3.7773c-9.5553 28.391-23.6434 52.5548-44.1367 74.4297-3.1365 3.3522-6.1939 6.77-9.25 10.1953-1.6837 1.8507-3.3983 3.6735-5.1328 5.4766C368.678 327.952 358.014 342.7203 350 359l-.9258 1.8462c-3.863 7.9707-5.5538 15.7891-6.2226 24.5952l-.2478 3.206c-1.1243 16.6665-.8613 33.3958-.7994 50.0904.0108 3.6956.0104 7.3912.0098 11.0869.0003 3.619.0058 7.238.013 10.857q.0048 2.5494.006 5.099c.0103 11.1083.3961 22.1373 1.1668 33.2193 3.0516-2.853 4.4295-5.7584 6.1875-9.5625C352.3493 482.8703 356.1477 477.4656 361 472l2.2266-2.5547c5.7804-6.5353 11.7323-12.8362 18.3476-18.5312C401.6182 433.4453 417.8693 414.6979 430 391l1.0112-1.9482c6.7593-13.1587 12.1975-26.9361 12.6446-41.8499l.1054-2.742c.3476-9.8534.384-19.707.3716-29.5654q.001-2.917.003-5.834c.0014-4.036-.0007-8.072-.0054-12.1081-.0057-5.1195-.0024-10.239.0035-15.3585.0037-4.0025.0025-8.005 0-12.0074q-.0011-2.8288.0024-5.6576c.009-9.2744-.0807-18.523-.5821-27.7856l-.1173-2.1826c-.2645-4.3701-.7646-8.6396-1.4369-12.9607zm-95 88 1 2Zm-1 4v7h1v-7zm-1 7c-3.5208 22.901-6.4761 45.7725-8.3125 68.875l-.2448 3.0488c-1.797 22.6573-2.6814 45.2213-2.6927 67.9512l-.002 3.7444c.049 57.2805 5.7554 114.7237 17.8145 170.7556l.814 3.8132c1.972 8.8268 4.6278 17.2916 7.6235 25.8118h1c2.668-14.6741-.2262-28.8402-3.3242-43.1992C349.7248 588.5543 345.1206 555.8338 342 523l-.2278-2.3425c-2.49-25.7993-3.0598-51.5613-3.0823-77.462-.0024-2.334-.0077-4.668-.0133-7.002-.0519-29.5644 1.4802-58.8993 4.4484-88.3185.2747-2.7562.5474-5.5125.8156-8.2693.163-1.6722.3296-3.344.5008-5.0154.4797-4.8891.6305-9.6773.5586-14.5903zm-91 12c-.3417 2.1445-.6729 4.2907-1 6.4375l-.5625 3.621c-.8677 7.8169-.4362 14.432 1.6875 22.004l.6846 2.4915c6.3873 22.655 16.8002 41.5531 32.8545 58.8991 1.9175 2.0907 3.772 4.213 5.621 6.3633 3.0256 3.4704 6.2097 6.71 9.5123 9.9153C312.4584 452.0789 321.3756 462.5627 328 476h1c0-20.6728-18.7797-38.1436-31.4634-52.6768C274.0532 396.3546 261.5386 366.6895 254 332zm-3 29c-11.4948 40.2227 2.3385 94.3148 21.8477 129.664C278.5037 502.226 286.9203 512.2743 296 522q2.2196 2.5305 4.4375 5.0625c3.6433 4.0502 7.514 7.6494 11.6055 11.2383 5.9852 5.3627 11.5433 11.2083 17.1928 16.9192 1.9155 1.9326 3.839 3.8571 5.7642 5.78-.744-12.6329-1.6933-25.244-2.6978-37.8584a5736 5736 0 0 1-.5835-7.415l-.1926-2.44c-.3144-4.0914-.5814-8.1788-.7678-12.278l-.1144-2.4452a407 407 0 0 1-.178-4.5521c-.9718-21.9398-19.4022-39.1544-34.0953-53.6092C291.1568 435.2415 286.465 429.8251 282 424l-2.2266-2.8164C266.3238 403.8284 254.869 382.8555 251 361zm191 9-.8125 2.5c-7.479 22.0436-19.273 42.092-35.082 59.207-1.8676 2.0339-3.6453 4.1145-5.418 6.2305-4.2947 4.9266-9.186 9.212-14.0376 13.5742-3.9507 3.5638-7.8593 7.1735-11.7554 10.7969-1.617 1.5036-3.2397 3.0014-4.8828 4.4766C357.6554 477.3826 346.4997 493.496 344 509c.3005 1.3411.6298 2.6764 1 4l1.6523-3.1133C356.911 490.8937 370.8998 476.9063 388 464c-2.736 3.5466-5.627 6.7022-8.8516 9.8086C355.8508 495.748 355.8508 495.748 345 525c.0995 2.8028.4241 5.5588.7773 8.3398l.2734 2.3242c.2872 2.4256.5868 4.8494.8868 7.2735q.2971 2.4813.5918 4.9629A2866 2866 0 0 0 349 560c3.2641-1.632 4.0815-5.1826 5.5625-8.375 3.5997-7.4487 7.8462-13.492 13.4375-19.625l2.3477-2.6719c4.228-4.7312 8.5793-9.2825 13.121-13.7148 34.4144-33.6098 51.6928-72.55 57.3438-120.2383l.3757-3.1565c.8012-7.4238.9411-14.7556.8118-22.2185zm-85 201 1 2Z"/></svg>